<?xml version="1.0" encoding="UTF-8"?>
<!DOCTYPE svg PUBLIC "-//W3C//DTD SVG 1.1//EN" "http://www.w3.org/Graphics/SVG/1.1/DTD/svg11.dtd">
<!-- Creator: CorelDRAW 2020 (64 Bit) -->
<svg xmlns="http://www.w3.org/2000/svg" xml:space="preserve" width="210mm" height="297mm" version="1.1" style="shape-rendering:geometricPrecision; text-rendering:geometricPrecision; image-rendering:optimizeQuality; fill-rule:evenodd; clip-rule:evenodd"
viewBox="0 0 21000 29700"
 xmlns:xlink="http://www.w3.org/1999/xlink"
 xmlns:xodm="http://www.corel.com/coreldraw/odm/2003">
 <defs>
  <style type="text/css">
   <![CDATA[
    .fil1 {fill:#00A859}
    .fil0 {fill:black}
    .fnt0 {font-weight:normal;font-size:51.67px;font-family:'Arial'}
   ]]>
  </style>
     <clipPath id="id0">
      <path d="M10703.77 16655.35l246.19 2.3 0 223.58 -246.19 -2.31 0 -223.57z"/>
     </clipPath>
     <clipPath id="id1">
      <path d="M10749.19 16684.94l155.34 -2.09 0 165.37 -155.34 2.1 0 -165.38z"/>
     </clipPath>
     <clipPath id="id2">
      <path d="M10732.75 16849.62l188.22 -0.21 0 76.65 -188.22 0.22 0 -76.66z"/>
     </clipPath>
 </defs>
 <g id="Camada_x0020_1">
  <metadata id="CorelCorpID_0Corel-Layer"/>
  <g id="_1196601440">
   <g>
    <g style="clip-path:url(#id0)">
     <image x="10703.77" y="16655.35" width="246.19" height="225.88" xlink:href="favicon-omega_Images\favicon-omega_ImgID1.jpg"/>
    </g>
   </g>
   <path class="fil0" d="M10822.83 16681.39c43.04,0 77.94,30.81 77.94,68.8 0,28.82 -20.08,53.49 -48.55,63.73l-1.14 11.94c9.48,0 18.95,0 25.61,0.01 6.65,0.02 10.48,0.06 13.2,0 2.71,-0.05 4.31,-0.19 6.26,-0.56 1.95,-0.38 4.26,-0.98 6.14,-1.73 1.88,-0.74 3.34,-1.63 4.39,-2.55 1.04,-0.92 1.68,-1.88 2.18,-3.11 0.5,-1.22 0.85,-2.71 1.06,-4.55 0.22,-1.83 0.29,-4.02 0.36,-6.2l4.68 0 0 46.21 -73.04 0 2.92 -37.18 -0.05 0.02 0.73 -9.45c21.43,-9.19 36.51,-31 36.51,-56.45 0,-33.76 -26.51,-61.12 -59.2,-61.12 -32.7,0 -59.2,27.36 -59.2,61.12 0,25.39 15,47.16 36.35,56.39l0.04 0.46 0.09 0c1.21,15.4 2.42,30.81 3.62,46.21l-73.04 0 0 -46.21 4.69 0c0.07,2.18 0.14,4.37 0.35,6.2 0.22,1.84 0.57,3.33 1.07,4.55 0.49,1.23 1.13,2.19 2.18,3.11 1.05,0.92 2.5,1.81 4.38,2.55 1.88,0.75 4.19,1.35 6.14,1.73 1.95,0.37 3.55,0.51 6.27,0.56 2.71,0.06 6.54,0.02 13.2,0 6.65,-0.01 16.13,-0.01 25.61,-0.01l-1.14 -11.94c-28.48,-10.24 -48.55,-34.91 -48.55,-63.73 0,-37.99 34.89,-68.8 77.94,-68.8z"/>
   <g>
    <g style="clip-path:url(#id1)">
     <image x="10749.19" y="16682.85" width="155.34" height="167.47" xlink:href="favicon-omega_Images\favicon-omega_ImgID2.jpg"/>
    </g>
   </g>
   <g>
    <path class="fil0" d="M10767.11 16778.8c0,18.08 0,36.16 0,54.24 3.52,-2 7.03,-4 11.38,-6.76 4.35,-2.76 9.54,-6.28 14.74,-10.17 5.2,-3.88 10.41,-8.12 14.76,-11.91 4.35,-3.79 7.83,-7.14 10.34,-9.64 2.51,-2.51 4.03,-4.19 5.55,-5.87 1.53,1.68 3.05,3.36 5.56,5.87 2.5,2.5 5.99,5.85 10.34,9.64 4.35,3.79 9.56,8.03 14.76,11.91 5.2,3.89 10.39,7.41 14.74,10.17 4.35,2.76 7.86,4.76 11.37,6.76 0,-18.08 0.01,-36.16 0.01,-54.24 -1.66,-1.38 -3.32,-2.76 -5.99,-5 -2.66,-2.24 -6.33,-5.33 -10.18,-9.17 -3.85,-3.83 -7.89,-8.41 -12.13,-13.54 -4.24,-5.13 -8.68,-10.81 -12.27,-16.26 -3.6,-5.44 -6.34,-10.66 -8.9,-16.14 -2.56,-5.47 -4.93,-11.22 -7.31,-16.96 -2.37,5.74 -4.74,11.49 -7.3,16.96 -2.56,5.48 -5.31,10.7 -8.9,16.14 -3.59,5.45 -8.03,11.13 -12.27,16.26 -4.24,5.13 -8.28,9.71 -12.13,13.54 -3.85,3.84 -7.52,6.93 -10.18,9.17 -2.67,2.24 -4.33,3.62 -5.99,5z"/>
    <path class="fil1" d="M10823.88 16721.66c-2.27,4.12 -4.55,8.23 -7.05,12.34 -2.49,4.11 -5.21,8.21 -7.98,12.04 -2.78,3.83 -5.62,7.39 -8.17,10.4 -2.55,3 -4.81,5.45 -7.05,7.81 -2.24,2.36 -4.45,4.64 -6.63,6.72 -2.18,2.09 -4.32,3.98 -6.51,5.87 -2.19,1.9 -4.42,3.8 -6.66,5.7 -0.07,5.21 -0.15,10.41 -0.23,15.62 1.31,-0.86 2.62,-1.72 4.52,-3.13 1.9,-1.42 4.38,-3.39 7.02,-5.56 2.64,-2.17 5.43,-4.54 8.48,-7.35 3.05,-2.8 6.35,-6.04 9.22,-9.04 2.87,-2.99 5.31,-5.73 7.54,-8.37 2.23,-2.65 4.25,-5.21 6.46,-8.17 2.22,-2.95 4.63,-6.3 7.04,-9.65 2.42,3.35 4.83,6.7 7.05,9.65 2.21,2.96 4.23,5.52 6.46,8.17 2.23,2.64 4.67,5.38 7.54,8.37 2.87,3 6.17,6.24 9.22,9.04 3.04,2.81 5.84,5.18 8.48,7.35 2.64,2.17 5.12,4.14 7.02,5.56 1.9,1.41 3.21,2.27 4.52,3.13 -0.08,-5.21 -0.16,-10.41 -0.23,-15.62 -2.24,-1.9 -4.47,-3.8 -6.66,-5.7 -2.19,-1.89 -4.33,-3.78 -6.51,-5.87 -2.18,-2.08 -4.39,-4.36 -6.63,-6.72 -2.24,-2.36 -4.5,-4.81 -7.05,-7.81 -2.55,-3.01 -5.39,-6.57 -8.17,-10.4 -2.77,-3.83 -5.49,-7.93 -7.98,-12.04 -2.5,-4.11 -4.78,-8.22 -7.06,-12.34z"/>
    <path class="fil1" d="M10823.88 16757.69c-2.38,3.03 -4.77,6.05 -7.57,9.38 -2.81,3.33 -6.02,6.96 -9.32,10.43 -3.3,3.48 -6.69,6.79 -10.12,9.91 -3.43,3.11 -6.9,6.03 -10.01,8.51 -3.11,2.48 -5.85,4.53 -7.99,6.08 -2.14,1.55 -3.69,2.61 -5.23,3.68 -0.01,4.67 -0.02,9.34 -0.03,14.01 2.44,-1.51 4.88,-3.03 7.79,-5 2.91,-1.97 6.29,-4.4 9.56,-6.89 3.28,-2.48 6.44,-5.03 9.41,-7.55 2.96,-2.52 5.74,-5.02 8.46,-7.63 2.73,-2.61 5.41,-5.34 7.92,-7.98 2.5,-2.64 4.82,-5.19 7.13,-7.74 2.32,2.55 4.64,5.1 7.14,7.74 2.5,2.64 5.19,5.37 7.92,7.98 2.72,2.61 5.49,5.11 8.46,7.63 2.97,2.52 6.13,5.07 9.41,7.55 3.27,2.49 6.65,4.92 9.56,6.89 2.91,1.97 5.35,3.49 7.79,5 -0.01,-4.67 -0.02,-9.34 -0.03,-14.01 -1.54,-1.07 -3.09,-2.13 -5.23,-3.68 -2.14,-1.55 -4.88,-3.6 -7.99,-6.08 -3.11,-2.48 -6.58,-5.4 -10.01,-8.51 -3.43,-3.12 -6.82,-6.43 -10.12,-9.91 -3.3,-3.47 -6.51,-7.1 -9.32,-10.43 -2.8,-3.33 -5.19,-6.35 -7.58,-9.38z"/>
   </g>
   <g>
    <g style="clip-path:url(#id2)">
     <image x="10732.75" y="16849.41" width="188.22" height="76.87" xlink:href="favicon-omega_Images\favicon-omega_ImgID3.jpg"/>
    </g>
   </g>
   <g transform="matrix(1.00002 0 0 1 239.984 2055.69)">
    <text x="10500" y="14850"  class="fil0 fnt0">Ômega</text>
   </g>
  </g>
 </g>
</svg>
